<?xml version="1.0" encoding="UTF-8"?>
<svg xmlns:xhtml="http://www.w3.org/1999/xhtml" xmlns:xlink="http://www.w3.org/1999/xlink" xmlns="http://www.w3.org/2000/svg" id="mermaid-svg-1" width="100%" class="flowchart" style="max-width: 100%;" viewBox="-44.58265686035156 -44.58265686035156 980.8184509277344 1277.7278137207031" height="100%"><style>#mermaid-svg-1{font-family:"trebuchet ms",verdana,arial,sans-serif;font-size:16px;fill:#333;}@keyframes edge-animation-frame{from{stroke-dashoffset:0;}}@keyframes dash{to{stroke-dashoffset:0;}}#mermaid-svg-1 .edge-animation-slow{stroke-dasharray:9,5!important;stroke-dashoffset:900;animation:dash 50s linear infinite;stroke-linecap:round;}#mermaid-svg-1 .edge-animation-fast{stroke-dasharray:9,5!important;stroke-dashoffset:900;animation:dash 20s linear infinite;stroke-linecap:round;}#mermaid-svg-1 .error-icon{fill:#552222;}#mermaid-svg-1 .error-text{fill:#552222;stroke:#552222;}#mermaid-svg-1 .edge-thickness-normal{stroke-width:1px;}#mermaid-svg-1 .edge-thickness-thick{stroke-width:3.5px;}#mermaid-svg-1 .edge-pattern-solid{stroke-dasharray:0;}#mermaid-svg-1 .edge-thickness-invisible{stroke-width:0;fill:none;}#mermaid-svg-1 .edge-pattern-dashed{stroke-dasharray:3;}#mermaid-svg-1 .edge-pattern-dotted{stroke-dasharray:2;}#mermaid-svg-1 .marker{fill:#333333;stroke:#333333;}#mermaid-svg-1 .marker.cross{stroke:#333333;}#mermaid-svg-1 svg{font-family:"trebuchet ms",verdana,arial,sans-serif;font-size:16px;}#mermaid-svg-1 p{margin:0;}#mermaid-svg-1 .label{font-family:"trebuchet ms",verdana,arial,sans-serif;color:#333;}#mermaid-svg-1 .cluster-label text{fill:#333;}#mermaid-svg-1 .cluster-label span{color:#333;}#mermaid-svg-1 .cluster-label span p{background-color:transparent;}#mermaid-svg-1 .label text,#mermaid-svg-1 span{fill:#333;color:#333;}#mermaid-svg-1 .node rect,#mermaid-svg-1 .node circle,#mermaid-svg-1 .node ellipse,#mermaid-svg-1 .node polygon,#mermaid-svg-1 .node path{fill:#ECECFF;stroke:#9370DB;stroke-width:1px;}#mermaid-svg-1 .rough-node .label text,#mermaid-svg-1 .node .label text,#mermaid-svg-1 .image-shape .label,#mermaid-svg-1 .icon-shape .label{text-anchor:middle;}#mermaid-svg-1 .node .katex path{fill:#000;stroke:#000;stroke-width:1px;}#mermaid-svg-1 .rough-node .label,#mermaid-svg-1 .node .label,#mermaid-svg-1 .image-shape .label,#mermaid-svg-1 .icon-shape .label{text-align:center;}#mermaid-svg-1 .node.clickable{cursor:pointer;}#mermaid-svg-1 .root .anchor path{fill:#333333!important;stroke-width:0;stroke:#333333;}#mermaid-svg-1 .arrowheadPath{fill:#333333;}#mermaid-svg-1 .edgePath .path{stroke:#333333;stroke-width:2.0px;}#mermaid-svg-1 .flowchart-link{stroke:#333333;fill:none;}#mermaid-svg-1 .edgeLabel{background-color:rgba(232,232,232, 0.8);text-align:center;}#mermaid-svg-1 .edgeLabel p{background-color:rgba(232,232,232, 0.8);}#mermaid-svg-1 .edgeLabel rect{opacity:0.5;background-color:rgba(232,232,232, 0.8);fill:rgba(232,232,232, 0.8);}#mermaid-svg-1 .labelBkg{background-color:rgba(232, 232, 232, 0.5);}#mermaid-svg-1 .cluster rect{fill:#ffffde;stroke:#aaaa33;stroke-width:1px;}#mermaid-svg-1 .cluster text{fill:#333;}#mermaid-svg-1 .cluster span{color:#333;}#mermaid-svg-1 div.mermaidTooltip{position:absolute;text-align:center;max-width:200px;padding:2px;font-family:"trebuchet ms",verdana,arial,sans-serif;font-size:12px;background:hsl(80, 100%, 96.2745098039%);border:1px solid #aaaa33;border-radius:2px;pointer-events:none;z-index:100;}#mermaid-svg-1 .flowchartTitleText{text-anchor:middle;font-size:18px;fill:#333;}#mermaid-svg-1 rect.text{fill:none;stroke-width:0;}#mermaid-svg-1 .icon-shape,#mermaid-svg-1 .image-shape{background-color:rgba(232,232,232, 0.8);text-align:center;}#mermaid-svg-1 .icon-shape p,#mermaid-svg-1 .image-shape p{background-color:rgba(232,232,232, 0.8);padding:2px;}#mermaid-svg-1 .icon-shape rect,#mermaid-svg-1 .image-shape rect{opacity:0.5;background-color:rgba(232,232,232, 0.8);fill:rgba(232,232,232, 0.8);}#mermaid-svg-1 .label-icon{display:inline-block;height:1em;overflow:visible;vertical-align:-0.125em;}#mermaid-svg-1 .node .label-icon path{fill:currentColor;stroke:revert;stroke-width:revert;}#mermaid-svg-1 :root{--mermaid-font-family:"trebuchet ms",verdana,arial,sans-serif;}</style><g><marker id="mermaid-svg-1_flowchart-v2-pointEnd" class="marker flowchart-v2" viewBox="0 0 10 10" refX="5" refY="5" markerUnits="userSpaceOnUse" markerWidth="8" markerHeight="8" orient="auto"><path d="M 0 0 L 10 5 L 0 10 z" class="arrowMarkerPath" style="stroke-width: 1; stroke-dasharray: 1, 0;"/></marker><marker id="mermaid-svg-1_flowchart-v2-pointStart" class="marker flowchart-v2" viewBox="0 0 10 10" refX="4.5" refY="5" markerUnits="userSpaceOnUse" markerWidth="8" markerHeight="8" orient="auto"><path d="M 0 5 L 10 10 L 10 0 z" class="arrowMarkerPath" style="stroke-width: 1; stroke-dasharray: 1, 0;"/></marker><marker id="mermaid-svg-1_flowchart-v2-circleEnd" class="marker flowchart-v2" viewBox="0 0 10 10" refX="11" refY="5" markerUnits="userSpaceOnUse" markerWidth="11" markerHeight="11" orient="auto"><circle cx="5" cy="5" r="5" class="arrowMarkerPath" style="stroke-width: 1; stroke-dasharray: 1, 0;"/></marker><marker id="mermaid-svg-1_flowchart-v2-circleStart" class="marker flowchart-v2" viewBox="0 0 10 10" refX="-1" refY="5" markerUnits="userSpaceOnUse" markerWidth="11" markerHeight="11" orient="auto"><circle cx="5" cy="5" r="5" class="arrowMarkerPath" style="stroke-width: 1; stroke-dasharray: 1, 0;"/></marker><marker id="mermaid-svg-1_flowchart-v2-crossEnd" class="marker cross flowchart-v2" viewBox="0 0 11 11" refX="12" refY="5.2" markerUnits="userSpaceOnUse" markerWidth="11" markerHeight="11" orient="auto"><path d="M 1,1 l 9,9 M 10,1 l -9,9" class="arrowMarkerPath" style="stroke-width: 2; stroke-dasharray: 1, 0;"/></marker><marker id="mermaid-svg-1_flowchart-v2-crossStart" class="marker cross flowchart-v2" viewBox="0 0 11 11" refX="-1" refY="5.2" markerUnits="userSpaceOnUse" markerWidth="11" markerHeight="11" orient="auto"><path d="M 1,1 l 9,9 M 10,1 l -9,9" class="arrowMarkerPath" style="stroke-width: 2; stroke-dasharray: 1, 0;"/></marker><g class="root"><g class="clusters"><g class="cluster" id="subGraph3" data-look="classic"><rect style="" x="133.59375381469727" y="1076.5625" width="750.0593643188477" height="104"/><g class="cluster-label" transform="translate(433.2859344482422, 1076.5625)"><foreignObject width="150.6750030517578" height="24"><div xmlns="http://www.w3.org/1999/xhtml" style="display: table-cell; white-space: nowrap; line-height: 1.5; max-width: 200px; text-align: center;"><span class="nodeLabel"><p>Storage &amp; Monitoring</p></span></div></foreignObject></g></g><g class="cluster" id="subGraph2" data-look="classic"><rect style="" x="183.21875" y="794.5625" width="400.3125" height="232"/><g class="cluster-label" transform="translate(335.83124923706055, 794.5625)"><foreignObject width="95.0875015258789" height="24"><div xmlns="http://www.w3.org/1999/xhtml" style="display: table-cell; white-space: nowrap; line-height: 1.5; max-width: 200px; text-align: center;"><span class="nodeLabel"><p>Posting Layer</p></span></div></foreignObject></g></g><g class="cluster" id="subGraph1" data-look="classic"><rect style="" x="8" y="290" width="744.2124938964844" height="454.5625"/><g class="cluster-label" transform="translate(287.1437454223633, 290)"><foreignObject width="185.9250030517578" height="24"><div xmlns="http://www.w3.org/1999/xhtml" style="display: table-cell; white-space: nowrap; line-height: 1.5; max-width: 200px; text-align: center;"><span class="nodeLabel"><p>Content Generation Layer</p></span></div></foreignObject></g></g><g class="cluster" id="Scheduler" data-look="classic"><rect style="" x="265.7000045776367" y="8" width="615.0937385559082" height="232"/><g class="cluster-label" transform="translate(538.0406246185303, 8)"><foreignObject width="70.4124984741211" height="24"><div xmlns="http://www.w3.org/1999/xhtml" style="display: table-cell; white-space: nowrap; line-height: 1.5; max-width: 200px; text-align: center;"><span class="nodeLabel"><p>Scheduler</p></span></div></foreignObject></g></g></g><g class="edgePaths"><path d="M391.809,111L391.809,115.167C391.809,119.333,391.809,127.667,406.451,135.825C421.093,143.983,450.376,151.965,465.018,155.957L479.66,159.948" id="L_A_B_0" class="edge-thickness-normal edge-pattern-solid edge-thickness-normal edge-pattern-solid flowchart-link" style="" marker-end="url(#mermaid-svg-1_flowchart-v2-pointEnd)"/><path d="M749.059,111L749.059,115.167C749.059,119.333,749.059,127.667,736.355,135.801C723.65,143.936,698.241,151.872,685.537,155.84L672.832,159.808" id="L_C_B_0" class="edge-thickness-normal edge-pattern-solid edge-thickness-normal edge-pattern-solid flowchart-link" style="" marker-end="url(#mermaid-svg-1_flowchart-v2-pointEnd)"/><path d="M471.209,213.887L452.488,218.239C433.766,222.591,396.322,231.296,377.6,239.814C358.878,248.333,358.878,256.667,358.878,265C358.878,273.333,358.878,281.667,358.948,289.417C359.019,297.167,359.159,304.334,359.229,307.917L359.3,311.501" id="L_B_D_0" class="edge-thickness-normal edge-pattern-solid edge-thickness-normal edge-pattern-solid flowchart-link" style="" marker-end="url(#mermaid-svg-1_flowchart-v2-pointEnd)"/><path d="M310.752,415.437L283.621,429.624C256.489,443.812,202.226,472.187,175.094,491.875C147.963,511.563,147.963,522.563,147.963,528.063L147.963,533.563" id="L_D_E_0" class="edge-thickness-normal edge-pattern-solid edge-thickness-normal edge-pattern-solid flowchart-link" style="" marker-end="url(#mermaid-svg-1_flowchart-v2-pointEnd)"/><path d="M374.942,448.499L377.181,457.176C379.42,465.853,383.897,483.208,386.136,497.385C388.375,511.563,388.375,522.563,388.375,528.063L388.375,533.563" id="L_D_F_0" class="edge-thickness-normal edge-pattern-solid edge-thickness-normal edge-pattern-solid flowchart-link" style="" marker-end="url(#mermaid-svg-1_flowchart-v2-pointEnd)"/><path d="M411.494,411.947L446.331,426.716C481.169,441.486,550.844,471.024,585.681,491.293C620.519,511.563,620.519,522.563,620.519,528.063L620.519,533.563" id="L_D_G_0" class="edge-thickness-normal edge-pattern-solid edge-thickness-normal edge-pattern-solid flowchart-link" style="" marker-end="url(#mermaid-svg-1_flowchart-v2-pointEnd)"/><path d="M147.963,615.563L147.963,619.729C147.963,623.896,147.963,632.229,171.803,641.552C195.643,650.875,243.323,661.188,267.163,666.345L291.003,671.501" id="L_E_H_0" class="edge-thickness-normal edge-pattern-solid edge-thickness-normal edge-pattern-solid flowchart-link" style="" marker-end="url(#mermaid-svg-1_flowchart-v2-pointEnd)"/><path d="M388.375,615.563L388.375,619.729C388.375,623.896,388.375,632.229,388.375,639.896C388.375,647.563,388.375,654.563,388.375,658.063L388.375,661.563" id="L_F_H_0" class="edge-thickness-normal edge-pattern-solid edge-thickness-normal edge-pattern-solid flowchart-link" style="" marker-end="url(#mermaid-svg-1_flowchart-v2-pointEnd)"/><path d="M620.519,615.563L620.519,619.729C620.519,623.896,620.519,632.229,598.056,641.428C575.593,650.626,530.667,660.689,508.204,665.721L485.741,670.753" id="L_G_H_0" class="edge-thickness-normal edge-pattern-solid edge-thickness-normal edge-pattern-solid flowchart-link" style="" marker-end="url(#mermaid-svg-1_flowchart-v2-pointEnd)"/><path d="M388.375,719.563L388.375,723.729C388.375,727.896,388.375,736.229,388.375,744.563C388.375,752.896,388.375,761.229,388.375,769.563C388.375,777.896,388.375,786.229,388.375,793.896C388.375,801.563,388.375,808.563,388.375,812.063L388.375,815.563" id="L_H_I_0" class="edge-thickness-normal edge-pattern-solid edge-thickness-normal edge-pattern-solid flowchart-link" style="" marker-end="url(#mermaid-svg-1_flowchart-v2-pointEnd)"/><path d="M388.375,873.563L388.375,877.729C388.375,881.896,388.375,890.229,388.375,897.896C388.375,905.563,388.375,912.563,388.375,916.063L388.375,919.563" id="L_I_J_0" class="edge-thickness-normal edge-pattern-solid edge-thickness-normal edge-pattern-solid flowchart-link" style="" marker-end="url(#mermaid-svg-1_flowchart-v2-pointEnd)"/><path d="M302.19,1001.563L292.983,1005.729C283.775,1009.896,265.359,1018.229,256.152,1026.563C246.944,1034.896,246.944,1043.229,246.944,1051.563C246.944,1059.896,246.944,1068.229,246.944,1075.896C246.944,1083.563,246.944,1090.563,246.944,1094.063L246.944,1097.563" id="L_J_K_0" class="edge-thickness-normal edge-pattern-solid edge-thickness-normal edge-pattern-solid flowchart-link" style="" marker-end="url(#mermaid-svg-1_flowchart-v2-pointEnd)"/><path d="M435.895,1001.563L440.972,1005.729C446.049,1009.896,456.202,1018.229,461.279,1026.563C466.356,1034.896,466.356,1043.229,466.356,1051.563C466.356,1059.896,466.356,1068.229,466.356,1075.896C466.356,1083.563,466.356,1090.563,466.356,1094.063L466.356,1097.563" id="L_J_L_0" class="edge-thickness-normal edge-pattern-solid edge-thickness-normal edge-pattern-solid flowchart-link" style="" marker-end="url(#mermaid-svg-1_flowchart-v2-pointEnd)"/><path d="M682.216,215L697.594,219.167C712.972,223.333,743.728,231.667,759.106,240C774.484,248.333,774.484,256.667,774.484,265C774.484,273.333,774.484,281.667,774.484,302.38C774.484,323.094,774.484,356.188,774.484,391.281C774.484,426.375,774.484,463.469,774.484,494.682C774.484,525.896,774.484,551.229,774.484,574.563C774.484,597.896,774.484,619.229,774.484,638.563C774.484,657.896,774.484,675.229,774.484,692.563C774.484,709.896,774.484,727.229,774.484,740.063C774.484,752.896,774.484,761.229,774.484,769.563C774.484,777.896,774.484,786.229,774.484,799.063C774.484,811.896,774.484,829.229,774.484,846.563C774.484,863.896,774.484,881.229,774.484,900.563C774.484,919.896,774.484,941.229,774.484,962.563C774.484,983.896,774.484,1005.229,774.484,1020.063C774.484,1034.896,774.484,1043.229,774.484,1051.563C774.484,1059.896,774.484,1068.229,774.484,1075.896C774.484,1083.563,774.484,1090.563,774.484,1094.063L774.484,1097.563" id="L_B_M_0" class="edge-thickness-normal edge-pattern-solid edge-thickness-normal edge-pattern-solid flowchart-link" style="" marker-end="url(#mermaid-svg-1_flowchart-v2-pointEnd)"/></g><g class="edgeLabels"><g class="edgeLabel"><g class="label" transform="translate(0, 0)"><foreignObject width="0" height="0"><div xmlns="http://www.w3.org/1999/xhtml" class="labelBkg" style="display: table-cell; white-space: nowrap; line-height: 1.5; max-width: 200px; text-align: center;"><span class="edgeLabel"></span></div></foreignObject></g></g><g class="edgeLabel"><g class="label" transform="translate(0, 0)"><foreignObject width="0" height="0"><div xmlns="http://www.w3.org/1999/xhtml" class="labelBkg" style="display: table-cell; white-space: nowrap; line-height: 1.5; max-width: 200px; text-align: center;"><span class="edgeLabel"></span></div></foreignObject></g></g><g class="edgeLabel"><g class="label" transform="translate(0, 0)"><foreignObject width="0" height="0"><div xmlns="http://www.w3.org/1999/xhtml" class="labelBkg" style="display: table-cell; white-space: nowrap; line-height: 1.5; max-width: 200px; text-align: center;"><span class="edgeLabel"></span></div></foreignObject></g></g><g class="edgeLabel" transform="translate(147.9625015258789, 500.5625)"><g class="label" transform="translate(-21.450000762939453, -12)"><foreignObject width="42.900001525878906" height="24"><div xmlns="http://www.w3.org/1999/xhtml" class="labelBkg" style="display: table-cell; white-space: nowrap; line-height: 1.5; max-width: 200px; text-align: center;"><span class="edgeLabel"><p>Image</p></span></div></foreignObject></g></g><g class="edgeLabel" transform="translate(388.375, 500.5625)"><g class="label" transform="translate(-15.193750381469727, -12)"><foreignObject width="30.387500762939453" height="24"><div xmlns="http://www.w3.org/1999/xhtml" class="labelBkg" style="display: table-cell; white-space: nowrap; line-height: 1.5; max-width: 200px; text-align: center;"><span class="edgeLabel"><p>Text</p></span></div></foreignObject></g></g><g class="edgeLabel" transform="translate(620.5187454223633, 500.5625)"><g class="label" transform="translate(-19.950000762939453, -12)"><foreignObject width="39.900001525878906" height="24"><div xmlns="http://www.w3.org/1999/xhtml" class="labelBkg" style="display: table-cell; white-space: nowrap; line-height: 1.5; max-width: 200px; text-align: center;"><span class="edgeLabel"><p>Video</p></span></div></foreignObject></g></g><g class="edgeLabel"><g class="label" transform="translate(0, 0)"><foreignObject width="0" height="0"><div xmlns="http://www.w3.org/1999/xhtml" class="labelBkg" style="display: table-cell; white-space: nowrap; line-height: 1.5; max-width: 200px; text-align: center;"><span class="edgeLabel"></span></div></foreignObject></g></g><g class="edgeLabel"><g class="label" transform="translate(0, 0)"><foreignObject width="0" height="0"><div xmlns="http://www.w3.org/1999/xhtml" class="labelBkg" style="display: table-cell; white-space: nowrap; line-height: 1.5; max-width: 200px; text-align: center;"><span class="edgeLabel"></span></div></foreignObject></g></g><g class="edgeLabel"><g class="label" transform="translate(0, 0)"><foreignObject width="0" height="0"><div xmlns="http://www.w3.org/1999/xhtml" class="labelBkg" style="display: table-cell; white-space: nowrap; line-height: 1.5; max-width: 200px; text-align: center;"><span class="edgeLabel"></span></div></foreignObject></g></g><g class="edgeLabel"><g class="label" transform="translate(0, 0)"><foreignObject width="0" height="0"><div xmlns="http://www.w3.org/1999/xhtml" class="labelBkg" style="display: table-cell; white-space: nowrap; line-height: 1.5; max-width: 200px; text-align: center;"><span class="edgeLabel"></span></div></foreignObject></g></g><g class="edgeLabel"><g class="label" transform="translate(0, 0)"><foreignObject width="0" height="0"><div xmlns="http://www.w3.org/1999/xhtml" class="labelBkg" style="display: table-cell; white-space: nowrap; line-height: 1.5; max-width: 200px; text-align: center;"><span class="edgeLabel"></span></div></foreignObject></g></g><g class="edgeLabel"><g class="label" transform="translate(0, 0)"><foreignObject width="0" height="0"><div xmlns="http://www.w3.org/1999/xhtml" class="labelBkg" style="display: table-cell; white-space: nowrap; line-height: 1.5; max-width: 200px; text-align: center;"><span class="edgeLabel"></span></div></foreignObject></g></g><g class="edgeLabel"><g class="label" transform="translate(0, 0)"><foreignObject width="0" height="0"><div xmlns="http://www.w3.org/1999/xhtml" class="labelBkg" style="display: table-cell; white-space: nowrap; line-height: 1.5; max-width: 200px; text-align: center;"><span class="edgeLabel"></span></div></foreignObject></g></g><g class="edgeLabel"><g class="label" transform="translate(0, 0)"><foreignObject width="0" height="0"><div xmlns="http://www.w3.org/1999/xhtml" class="labelBkg" style="display: table-cell; white-space: nowrap; line-height: 1.5; max-width: 200px; text-align: center;"><span class="edgeLabel"></span></div></foreignObject></g></g></g><g class="nodes"><g class="node default" id="flowchart-A-0" transform="translate(391.8093795776367, 72)"><rect class="basic label-container" style="" x="-70.86249923706055" y="-39" width="141.7249984741211" height="78"/><g class="label" style="" transform="translate(-40.86249923706055, -24)"><rect/><foreignObject width="81.7249984741211" height="48"><div xmlns="http://www.w3.org/1999/xhtml" style="display: table-cell; white-space: nowrap; line-height: 1.5; max-width: 200px; text-align: center;"><span class="nodeLabel"><p>Cron Job<br />Daily 11 AM</p></span></div></foreignObject></g></g><g class="node default" id="flowchart-B-1" transform="translate(582.5656242370605, 188)"><rect class="basic label-container" style="" x="-111.35625457763672" y="-27" width="222.71250915527344" height="54"/><g class="label" style="" transform="translate(-81.35625457763672, -12)"><rect/><foreignObject width="162.71250915527344" height="24"><div xmlns="http://www.w3.org/1999/xhtml" style="display: table-cell; white-space: nowrap; line-height: 1.5; max-width: 200px; text-align: center;"><span class="nodeLabel"><p>Workflow Orchestrator</p></span></div></foreignObject></g></g><g class="node default" id="flowchart-C-2" transform="translate(749.0593681335449, 72)"><rect class="basic label-container" style="" x="-82.11249923706055" y="-39" width="164.2249984741211" height="78"/><g class="label" style="" transform="translate(-52.11249923706055, -24)"><rect/><foreignObject width="104.2249984741211" height="48"><div xmlns="http://www.w3.org/1999/xhtml" style="display: table-cell; white-space: nowrap; line-height: 1.5; max-width: 200px; text-align: center;"><span class="nodeLabel"><p>Manual Trigger<br />Run Once</p></span></div></foreignObject></g></g><g class="node default" id="flowchart-D-5" transform="translate(358.8781280517578, 389.28125)"><polygon points="74.28125,0 148.5625,-74.28125 74.28125,-148.5625 0,-74.28125" class="label-container" transform="translate(-73.78125, 74.28125)"/><g class="label" style="" transform="translate(-47.28125, -12)"><rect/><foreignObject width="94.5625" height="24"><div xmlns="http://www.w3.org/1999/xhtml" style="display: table-cell; white-space: nowrap; line-height: 1.5; max-width: 200px; text-align: center;"><span class="nodeLabel"><p>Content Type</p></span></div></foreignObject></g></g><g class="node default" id="flowchart-E-7" transform="translate(147.9625015258789, 576.5625)"><rect class="basic label-container" style="" x="-104.9625015258789" y="-39" width="209.9250030517578" height="78"/><g class="label" style="" transform="translate(-74.9625015258789, -24)"><rect/><foreignObject width="149.9250030517578" height="48"><div xmlns="http://www.w3.org/1999/xhtml" style="display: table-cell; white-space: nowrap; line-height: 1.5; max-width: 200px; text-align: center;"><span class="nodeLabel"><p>Stable Diffusion SD3<br />LinkedIn Illustrations</p></span></div></foreignObject></g></g><g class="node default" id="flowchart-F-9" transform="translate(388.375, 576.5625)"><rect class="basic label-container" style="" x="-85.45000076293945" y="-39" width="170.9000015258789" height="78"/><g class="label" style="" transform="translate(-55.45000076293945, -24)"><rect/><foreignObject width="110.9000015258789" height="48"><div xmlns="http://www.w3.org/1999/xhtml" style="display: table-cell; white-space: nowrap; line-height: 1.5; max-width: 200px; text-align: center;"><span class="nodeLabel"><p>Mistral AI<br />Poll Generation</p></span></div></foreignObject></g></g><g class="node default" id="flowchart-G-11" transform="translate(620.5187454223633, 576.5625)"><rect class="basic label-container" style="" x="-96.6937484741211" y="-39" width="193.3874969482422" height="78"/><g class="label" style="" transform="translate(-66.6937484741211, -24)"><rect/><foreignObject width="133.3874969482422" height="48"><div xmlns="http://www.w3.org/1999/xhtml" style="display: table-cell; white-space: nowrap; line-height: 1.5; max-width: 200px; text-align: center;"><span class="nodeLabel"><p>JSON2Video<br />Multi-scene Videos</p></span></div></foreignObject></g></g><g class="node default" id="flowchart-H-13" transform="translate(388.375, 692.5625)"><rect class="basic label-container" style="" x="-93.4625015258789" y="-27" width="186.9250030517578" height="54"/><g class="label" style="" transform="translate(-63.462501525878906, -12)"><rect/><foreignObject width="126.92500305175781" height="24"><div xmlns="http://www.w3.org/1999/xhtml" style="display: table-cell; white-space: nowrap; line-height: 1.5; max-width: 200px; text-align: center;"><span class="nodeLabel"><p>Content Assembly</p></span></div></foreignObject></g></g><g class="node default" id="flowchart-I-19" transform="translate(388.375, 846.5625)"><rect class="basic label-container" style="" x="-73.53125" y="-27" width="147.0625" height="54"/><g class="label" style="" transform="translate(-43.53125, -12)"><rect/><foreignObject width="87.0625" height="24"><div xmlns="http://www.w3.org/1999/xhtml" style="display: table-cell; white-space: nowrap; line-height: 1.5; max-width: 200px; text-align: center;"><span class="nodeLabel"><p>LinkedIn API</p></span></div></foreignObject></g></g><g class="node default" id="flowchart-J-21" transform="translate(388.375, 962.5625)"><rect class="basic label-container" style="" x="-115.9000015258789" y="-39" width="231.8000030517578" height="78"/><g class="label" style="" transform="translate(-85.9000015258789, -24)"><rect/><foreignObject width="171.8000030517578" height="48"><div xmlns="http://www.w3.org/1999/xhtml" style="display: table-cell; white-space: nowrap; line-height: 1.5; max-width: 200px; text-align: center;"><span class="nodeLabel"><p>LinkedIn Post<br />with Image/Video + Poll</p></span></div></foreignObject></g></g><g class="node default" id="flowchart-K-22" transform="translate(246.94375228881836, 1128.5625)"><rect class="basic label-container" style="" x="-78.35000228881836" y="-27" width="156.70000457763672" height="54"/><g class="label" style="" transform="translate(-48.35000228881836, -12)"><rect/><foreignObject width="96.70000457763672" height="24"><div xmlns="http://www.w3.org/1999/xhtml" style="display: table-cell; white-space: nowrap; line-height: 1.5; max-width: 200px; text-align: center;"><span class="nodeLabel"><p>(Post History)</p></span></div></foreignObject></g></g><g class="node default" id="flowchart-L-23" transform="translate(466.35625076293945, 1128.5625)"><rect class="basic label-container" style="" x="-91.0625" y="-27" width="182.125" height="54"/><g class="label" style="" transform="translate(-61.0625, -12)"><rect/><foreignObject width="122.125" height="24"><div xmlns="http://www.w3.org/1999/xhtml" style="display: table-cell; white-space: nowrap; line-height: 1.5; max-width: 200px; text-align: center;"><span class="nodeLabel"><p>Analytics Tracker</p></span></div></foreignObject></g></g><g class="node default" id="flowchart-M-24" transform="translate(774.4843711853027, 1128.5625)"><rect class="basic label-container" style="" x="-74.16875076293945" y="-27" width="148.3375015258789" height="54"/><g class="label" style="" transform="translate(-44.16875076293945, -12)"><rect/><foreignObject width="88.3375015258789" height="24"><div xmlns="http://www.w3.org/1999/xhtml" style="display: table-cell; white-space: nowrap; line-height: 1.5; max-width: 200px; text-align: center;"><span class="nodeLabel"><p>Error Logger</p></span></div></foreignObject></g></g></g></g></g></svg>