<svg width="100%" viewBox="0 0 680 820" xmlns="http://www.w3.org/2000/svg">
<defs>
<style>
  .th { font-size: 14px; font-weight: 500; font-family: system-ui, sans-serif; fill: #1a1a18; }
  .ts { font-size: 12px; font-weight: 400; font-family: system-ui, sans-serif; fill: #5f5e5a; }
  .arr { stroke: #888780; stroke-width: 1.5; fill: none; }
  .box { fill: #ededeb; stroke: #c0bfb8; }
  .c-purple rect { fill: #EEEDFE; stroke: #534AB7; }
  .c-purple .th { fill: #3C3489; }
  .c-purple .ts { fill: #534AB7; }
  .c-teal rect { fill: #E1F5EE; stroke: #0F6E56; }
  .c-teal .th { fill: #085041; }
  .c-teal .ts { fill: #0F6E56; }
  .c-gray rect { fill: #F1EFE8; stroke: #5F5E5A; }
  .c-gray .th { fill: #444441; }
  .c-gray .ts { fill: #5F5E5A; }
  .c-amber rect { fill: #FAEEDA; stroke: #854F0B; }
  .c-amber .th { fill: #633806; }
  .c-amber .ts { fill: #854F0B; }
  .c-blue rect { fill: #E6F1FB; stroke: #185FA5; }
  .c-blue .th { fill: #0C447C; }
  .c-blue .ts { fill: #185FA5; }
  .c-coral rect { fill: #FAECE7; stroke: #993C1D; }
  .c-coral .th { fill: #712B13; }
  .c-coral .ts { fill: #993C1D; }
  .c-pink rect { fill: #FBEAF0; stroke: #993556; }
  .c-pink .th { fill: #72243E; }
  .c-pink .ts { fill: #993556; }
</style>
<marker id="arrow" viewBox="0 0 10 10" refX="8" refY="5" markerWidth="6" markerHeight="6" orient="auto-start-reverse">
<path d="M2 1L8 5L2 9" fill="none" stroke="#888780" stroke-width="1.5" stroke-linecap="round" stroke-linejoin="round"/>
</marker>
</defs>

<rect width="680" height="820" fill="#f8f7f4"/>

<!-- SHARED SPINE -->
<g class="c-purple">
  <rect x="284" y="60" width="112" height="44" rx="6" stroke-width="0.5"/>
  <text class="th" x="340" y="78" text-anchor="middle" dominant-baseline="central">Scheduler</text>
  <text class="ts" x="340" y="94" text-anchor="middle" dominant-baseline="central">Airforce API</text>
</g>
<line x1="340" y1="104" x2="340" y2="134" class="arr" marker-end="url(#arrow)"/>

<g class="c-gray">
  <rect x="284" y="136" width="112" height="44" rx="6" stroke-width="0.5"/>
  <text class="th" x="340" y="154" text-anchor="middle" dominant-baseline="central">Text parser</text>
  <text class="ts" x="340" y="170" text-anchor="middle" dominant-baseline="central">remove \n</text>
</g>
<line x1="340" y1="180" x2="340" y2="194" class="arr" marker-end="url(#arrow)"/>

<g class="c-gray">
  <rect x="284" y="194" width="112" height="44" rx="6" stroke-width="0.5"/>
  <text class="th" x="340" y="212" text-anchor="middle" dominant-baseline="central">Text parser</text>
  <text class="ts" x="340" y="228" text-anchor="middle" dominant-baseline="central">remove "</text>
</g>
<line x1="340" y1="238" x2="340" y2="252" class="arr" marker-end="url(#arrow)"/>

<g class="c-gray">
  <rect x="284" y="252" width="112" height="44" rx="6" stroke-width="0.5"/>
  <text class="th" x="340" y="270" text-anchor="middle" dominant-baseline="central">Text parser</text>
  <text class="ts" x="340" y="286" text-anchor="middle" dominant-baseline="central">remove '</text>
</g>
<line x1="340" y1="296" x2="340" y2="310" class="arr" marker-end="url(#arrow)"/>

<g class="c-amber">
  <rect x="284" y="310" width="112" height="44" rx="6" stroke-width="0.5"/>
  <text class="th" x="340" y="328" text-anchor="middle" dominant-baseline="central">Router</text>
  <text class="ts" x="340" y="344" text-anchor="middle" dominant-baseline="central">4 routes</text>
</g>

<!-- ROUTE 1: Mon+Tue x=114 -->
<path d="M284 332 L114 332 L114 388" fill="none" stroke="#534AB7" stroke-width="1" marker-end="url(#arrow)"/>
<text class="ts" x="114" y="380" text-anchor="middle" font-family="system-ui,sans-serif" fill="#534AB7">Mon+Tue</text>
<g class="c-blue">
  <rect x="58" y="390" width="112" height="44" rx="6" stroke-width="0.5"/>
  <text class="th" x="114" y="408" text-anchor="middle" dominant-baseline="central">LinkedIn</text>
  <text class="ts" x="114" y="424" text-anchor="middle" dominant-baseline="central">text post</text>
</g>

<!-- ROUTE 2: Wed+Thu x=230 -->
<path d="M284 332 L230 332 L230 388" fill="none" stroke="#0F6E56" stroke-width="1" marker-end="url(#arrow)"/>
<text class="ts" x="230" y="380" text-anchor="middle" font-family="system-ui,sans-serif" fill="#0F6E56">Wed+Thu</text>
<g class="c-teal">
  <rect x="174" y="390" width="112" height="44" rx="6" stroke-width="0.5"/>
  <text class="th" x="230" y="408" text-anchor="middle" dominant-baseline="central">HTTP POST</text>
  <text class="ts" x="230" y="424" text-anchor="middle" dominant-baseline="central">NVIDIA stability</text>
</g>
<line x1="230" y1="434" x2="230" y2="448" class="arr" marker-end="url(#arrow)"/>
<g class="c-teal">
  <rect x="174" y="448" width="112" height="44" rx="6" stroke-width="0.5"/>
  <text class="th" x="230" y="466" text-anchor="middle" dominant-baseline="central">HTTP POST</text>
  <text class="ts" x="230" y="482" text-anchor="middle" dominant-baseline="central">imgbb upload</text>
</g>
<line x1="230" y1="492" x2="230" y2="506" class="arr" marker-end="url(#arrow)"/>
<g class="c-blue">
  <rect x="174" y="506" width="112" height="44" rx="6" stroke-width="0.5"/>
  <text class="th" x="230" y="524" text-anchor="middle" dominant-baseline="central">LinkedIn</text>
  <text class="ts" x="230" y="540" text-anchor="middle" dominant-baseline="central">image post</text>
</g>

<!-- ROUTE 3: Fri+Sat x=450 -->
<path d="M396 332 L450 332 L450 388" fill="none" stroke="#993C1D" stroke-width="1" marker-end="url(#arrow)"/>
<text class="ts" x="450" y="380" text-anchor="middle" font-family="system-ui,sans-serif" fill="#993C1D">Fri+Sat</text>
<g class="c-coral">
  <rect x="394" y="390" width="112" height="44" rx="6" stroke-width="0.5"/>
  <text class="th" x="450" y="408" text-anchor="middle" dominant-baseline="central">HTTP POST</text>
  <text class="ts" x="450" y="424" text-anchor="middle" dominant-baseline="central">generate poll</text>
</g>
<line x1="450" y1="434" x2="450" y2="448" class="arr" marker-end="url(#arrow)"/>
<g class="c-blue">
  <rect x="394" y="448" width="112" height="44" rx="6" stroke-width="0.5"/>
  <text class="th" x="450" y="466" text-anchor="middle" dominant-baseline="central">LinkedIn</text>
  <text class="ts" x="450" y="482" text-anchor="middle" dominant-baseline="central">poll post</text>
</g>

<!-- ROUTE 4: Sunday x=566 -->
<path d="M396 332 L566 332 L566 388" fill="none" stroke="#854F0B" stroke-width="1" marker-end="url(#arrow)"/>
<text class="ts" x="566" y="380" text-anchor="middle" font-family="system-ui,sans-serif" fill="#854F0B">Sunday</text>
<g class="c-pink">
  <rect x="510" y="390" width="112" height="44" rx="6" stroke-width="0.5"/>
  <text class="th" x="566" y="408" text-anchor="middle" dominant-baseline="central">Tools</text>
  <text class="ts" x="566" y="424" text-anchor="middle" dominant-baseline="central">BGM selector</text>
</g>
<line x1="566" y1="434" x2="566" y2="448" class="arr" marker-end="url(#arrow)"/>
<g class="c-teal">
  <rect x="510" y="448" width="112" height="44" rx="6" stroke-width="0.5"/>
  <text class="th" x="566" y="466" text-anchor="middle" dominant-baseline="central">HTTP POST</text>
  <text class="ts" x="566" y="482" text-anchor="middle" dominant-baseline="central">Freepik+J2V</text>
</g>
<line x1="566" y1="492" x2="566" y2="506" class="arr" marker-end="url(#arrow)"/>
<g class="c-gray">
  <rect x="510" y="506" width="112" height="44" rx="6" stroke-width="0.5"/>
  <text class="th" x="566" y="524" text-anchor="middle" dominant-baseline="central">Tools sleep</text>
  <text class="ts" x="566" y="540" text-anchor="middle" dominant-baseline="central">30 seconds</text>
</g>
<line x1="566" y1="550" x2="566" y2="564" class="arr" marker-end="url(#arrow)"/>
<g class="c-teal">
  <rect x="510" y="564" width="112" height="44" rx="6" stroke-width="0.5"/>
  <text class="th" x="566" y="582" text-anchor="middle" dominant-baseline="central">HTTP GET</text>
  <text class="ts" x="566" y="598" text-anchor="middle" dominant-baseline="central">fetch video URL</text>
</g>
<line x1="566" y1="608" x2="566" y2="622" class="arr" marker-end="url(#arrow)"/>
<g class="c-blue">
  <rect x="510" y="622" width="112" height="44" rx="6" stroke-width="0.5"/>
  <text class="th" x="566" y="640" text-anchor="middle" dominant-baseline="central">LinkedIn</text>
  <text class="ts" x="566" y="656" text-anchor="middle" dominant-baseline="central">video post</text>
</g>

<!-- Legend -->
<rect x="20" y="720" width="640" height="80" rx="8" fill="#ededeb" stroke="#c0bfb8" stroke-width="0.5"/>
<text x="340" y="742" text-anchor="middle" font-size="14" font-weight="500" font-family="system-ui,sans-serif" fill="#1a1a18" dominant-baseline="central">Legend</text>
<rect x="40" y="758" width="12" height="12" rx="2" fill="#EEEDFE" stroke="#534AB7"/>
<text x="58" y="769" font-size="12" font-family="system-ui,sans-serif" fill="#5f5e5a">Scheduler</text>
<rect x="130" y="758" width="12" height="12" rx="2" fill="#E1F5EE" stroke="#0F6E56"/>
<text x="148" y="769" font-size="12" font-family="system-ui,sans-serif" fill="#5f5e5a">HTTP / AI</text>
<rect x="220" y="758" width="12" height="12" rx="2" fill="#F1EFE8" stroke="#5F5E5A"/>
<text x="238" y="769" font-size="12" font-family="system-ui,sans-serif" fill="#5f5e5a">Text parser</text>
<rect x="320" y="758" width="12" height="12" rx="2" fill="#FAEEDA" stroke="#854F0B"/>
<text x="338" y="769" font-size="12" font-family="system-ui,sans-serif" fill="#5f5e5a">Router</text>
<rect x="400" y="758" width="12" height="12" rx="2" fill="#E6F1FB" stroke="#185FA5"/>
<text x="418" y="769" font-size="12" font-family="system-ui,sans-serif" fill="#5f5e5a">LinkedIn</text>
<rect x="480" y="758" width="12" height="12" rx="2" fill="#FBEAF0" stroke="#993556"/>
<text x="498" y="769" font-size="12" font-family="system-ui,sans-serif" fill="#5f5e5a">Tools</text>
<rect x="545" y="758" width="12" height="12" rx="2" fill="#FAECE7" stroke="#993C1D"/>
<text x="563" y="769" font-size="12" font-family="system-ui,sans-serif" fill="#5f5e5a">Poll gen</text>

</svg>
